# xmcd
#
# Track frame offsets: 
#        150
#        1328
#        20930
#        41146
#        65102
#        88075
#        105152
#        127060
#        153505
#        166758
#        176438
#        187945
#        212162
#        238572
#
# Disc length: 3384 seconds
#
# Revision: 0
# Processed by: cddbd v1.5.2PL0 Copyright (c) Steve Scherf et al.
# Submitted via: ExactAudioCopy v0.99pb3
#
DISCID=b80d360e
DTITLE=Mouss et Hakim - Vingt d'honneur La Tribu
DYEAR=1900
DGENRE=Acoustic
TTITLE0=Intro
TTITLE1=La Tribu
TTITLE2=C'est pas ma mère
TTITLE3=Petite Histoire
TTITLE4=On est venu
TTITLE5=Bottes de Banlieue
TTITLE6=La Bouche
TTITLE7=Estaca
TTITLE8=Paso del Ebro
TTITLE9=Bella Ciao
TTITLE10=Bandiera
TTITLE11=Oualalaradime
TTITLE12=Motivés
TTITLE13=
EXTD=
EXTT0=
EXTT1=
EXTT2=
EXTT3=
EXTT4=
EXTT5=
EXTT6=
EXTT7=
EXTT8=
EXTT9=
EXTT10=
EXTT11=
EXTT12=
EXTT13=
PLAYORDER=
